<svg height="512" viewBox="0 0 58 58" width="512" xmlns="http://www.w3.org/2000/svg"><g id="Page-1" fill="none" fill-rule="evenodd"><g id="027---Clownfish" fill-rule="nonzero"><g fill="#e57e25"><path id="Shape" d="m14.184 52.909s-2.119 4.091-4.945 4.091c-2.119 0-4.239-3.409-4.239-7.5 0-2.045-.087-6.5 2.826-6.5 2.826 0 6.174 4 6.174 4z"/><path id="Shape" d="m13 26s-3 6-7 6c-3 0-6-5-6-11 0-3-.123-11 4-11 4 0 9 6 9 6z"/><path id="Shape" d="m30.83 8.36c-1.68-1.66-2.63-3.85-.94-6.16 3.15-4.34 9.09-1.36 12.29 1.3 1.4648599 1.26095694 2.6910379 2.77504976 3.62 4.47z"/><path id="Shape" d="m18.987 16.017c-2.149-1.589-4.106-4.189-2.237-6.987 3.148-4.758 9.6.012 11.591 2.5z"/><path id="Shape" d="m21.2 26.119c-2.115 1.268-4.33 3.63-2.554 6.191 2.33 3.34 6.7 1.04 9.06-1 .7130263-.585063 1.1964659-1.4031916 1.365-2.31z"/><path id="Shape" d="m26.4 40.85c-.5984159-1.0307023-.5195654-2.3199081.2-3.27 2.13-3.12 6.15-.98 8.31.93.6424519.5807043 1.2101467 1.2390959 1.69 1.96z"/><path id="Shape" d="m19.144 47.722c-1.826-.949-4.22-3.032-2.614-5.352 1.62-2.34 4.46-1.27 6.43.13h.01z"/><path id="Shape" d="m20.343 52.6c-1.506.857-3.159 2.492-1.883 4.256 1.854 2.546 5.647.342 7.587-1.818z"/></g><path id="Shape" d="m13 22h-9c-.55228475 0-1-.4477153-1-1s.44771525-1 1-1h9c.5522847 0 1 .4477153 1 1s-.4477153 1-1 1z" fill="#d25627"/><path id="Shape" d="m13 20.01c-.1976355-.0002517-.3907649-.0590605-.555-.169-2.813-1.88-7.592-2.851-7.64-2.861-.35756247-.0630348-.65286758-.3149231-.77150007-.6580712-.11863249-.3431482-.04195204-.7236385.2003317-.994051.24228373-.2704124.61210153-.3882581.96616837-.3078778.212.042 5.22 1.061 8.36 3.158.367438.2449936.530662.702004.4015641 1.1243384-.1290978.4223343-.5199453.7099779-.9615641.7076616z" fill="#d25627"/><path id="Shape" d="m5 27c-.5137531.0005163-.94431064-.3883485-.99594219-.8995008s.29246364-.9782648.79594219-1.0804992c.048-.01 4.834-.986 7.64-2.861.4592248-.3070703 1.0804297-.1837248 1.3875.2755s.1837248 1.0804297-.2755 1.3875c-3.14 2.1-8.148 3.116-8.36 3.158-.06316021.0131345-.12748876.0198354-.192.02z" fill="#d25627"/><circle id="Oval" cx="55" cy="36" fill="#3b97d3" r="3"/><circle id="Oval" cx="53" cy="45" fill="#3b97d3" r="2"/><circle id="Oval" cx="52" cy="2" fill="#3b97d3" r="2"/><circle id="Oval" cx="49" cy="40" fill="#2980ba" r="1"/><circle id="Oval" cx="56" cy="6" fill="#2980ba" r="1"/><path id="Shape" d="m9 53c-.51434252-.000517-.94440849-.391114-.99428247-.9030331-.04987399-.511919.29671194-.9781817.80128247-1.0779669l5-.993c.5413133-.1060748 1.0662901.246207 1.1733023.7873357s-.2443597 1.066715-.7853023 1.1746643l-5 .993c-.06422138.0127009-.12953478.0190648-.195.019z" fill="#d25627"/><path id="Shape" d="m14 50c-.0671268.0002054-.1341127-.0061583-.2-.019l-5-1.005c-.35871156-.0616669-.65559016-.3133644-.77511541-.6571529-.11952524-.3437885-.04281948-.7253704.20026979-.996266.24308928-.2708955.6141689-.3883198.96884562-.3065811l5 1c.5126944.0924213.8685456.5629706.817847 1.0814558-.0506987.5184852-.4909607.9111888-1.011847.9025442z" fill="#d25627"/><path id="Shape" d="m13 16c-1.2505617 1.3692257-1.9612856 3.1460354-2 5 .0387144 1.8539646.7494383 3.6307743 2 5 3.1038184.0559314 6.1646171.7361089 9 2 4 2 9 5 17 5s19-6 19-14c.040004-.6660665.040004-1.3339335 0-2-1-4-10.341-10-18-10-6.325 0-10 1-16 5-7.158 4.772-8 4-11 4z" fill="#f29c1f"/><circle id="Oval" cx="51" cy="17" fill="#35495e" r="2"/><path id="Shape" d="m30 23c-.94 2.81-2.75 2.99-3.79 7.1-1.55-.72-2.93-1.46-4.21-2.1-.312527-.1594659-.6329383-.3029835-.96-.43.21-2.88.96-4.09.96-7.57-.0241158-2.0353117-.498822-4.0400063-1.39-5.87.95-.55 2.06-1.24 3.39-2.13.46-.31.91-.6 1.34-.87.5347786 1.7921418 1.441128 3.4515109 2.66 4.87 2 2 3 4 2 7z" fill="#ecf0f1"/><path id="Shape" d="m40.61 28.48c.2455057 1.4698584.6409019 2.9107088 1.18 4.3-.923438.140863-1.8558968.2143902-2.79.22-2.2972337.0085806-4.5871128-.2600269-6.82-.8 1.78-1.57 2.44-4.17 2.68-6.54l.26-5.26c.5941915-2.0810514.8904705-4.2358076.88-6.4.0023681-2.3150394-.6530815-4.58310311-1.89-6.54 1.8817408-.32884679 3.7898777-.48283678 5.7-.46 1.4234533 2.05702269 2.1872837 4.4984896 2.19 7 .0246168 2.4017263-.4735701 4.7800568-1.46 6.97z" fill="#ecf0f1"/><path id="Shape" d="m44 20c-.8405796.6952889-1.9103629 1.0518834-3 1-2 0-7-2.162-7 1 0 3 2 7 5 7 2 0 3-2 4-4z" fill="#f29c1f"/><path id="Shape" d="m14 47c-1.3333333 1.7777778-1.3333333 4.2222222 0 6 2.2245402-.214003 4.4679612.1086902 6.542.941 2.826 1.353 5.806 4.059 11.458 4.059s13.975-4.736 13.975-10.148c.0280025-.4505653.0280025-.9024347 0-1.353-.706-2.706-7.564-6.499-12.975-6.499-4.468 0-6.806.411-11.045 3.117-5.055 3.228-5.836 3.883-7.955 3.883z" fill="#f29c1f"/><circle id="Oval" cx="41" cy="47" fill="#35495e" r="1"/><path id="Shape" d="m33.94 48.58-.89 5.36c.0494234 1.3291834.1729486 2.6545754.37 3.97-.4710566.0589137-.9452747.0889698-1.42.09-1.0886381.0050317-2.1747311-.1055889-3.24-.33-.0764979-2.0024212.1493744-4.0049311.67-5.94v-.01l1-3.27h.01c.54-3.18-.82-6.46-1.72-8.19 1.4172019-.2031139 2.8486327-.2900699 4.28-.26.4210005-.0010597.8417077.0223129 1.26.07.6328355 1.2069707.8905278 2.5755258.74 3.93-.1731438 1.5628435-.5289052 3.1000011-1.06 4.58z" fill="#ecf0f1"/><path id="Shape" d="m22.68 55.12c-.74-.44-1.45-.85-2.14-1.18-.3780989-.1792786-.7692141-.3297076-1.17-.45.3819816-1.4674567.5933793-2.9740851.63-4.49-.0119623-1.3815724-.4178479-2.7310554-1.17-3.89.83-.51 1.84-1.17 3.13-1.99.12-.08.23-.15.35-.22.4905645 1.3955407 1.0546877 2.7641237 1.69 4.1.94 1.88 1.88 3.76-1.32 8.12z" fill="#ecf0f1"/><path id="Shape" d="m36 48c-.7114972.4013707-1.5161416.6083088-2.333.6-1.4 0-4.667-.817-4.667 1.08 0 2.16 1.4 4.32 3.5 4.32.8896942-.0381153 1.7282691-.4263112 2.333-1.08z" fill="#f29c1f"/><path id="Shape" d="m39 30c-3.718 0-6-4.66-6-8-.0451626-.7944795.2837381-1.5643809.889-2.081 1.261-1.029 3.375-.6 5.242-.214.614014.1486308 1.2390574.2472867 1.869.295.8278281.0431581 1.6437452-.21155 2.3-.718.3989756-.3752273 1.0248131-.3623371 1.408.029.3832686.3889397.3805882 1.0143597-.006 1.4-1.0244863.886009-2.348779 1.3471148-3.702 1.289-.7657091-.0420505-1.525919-.1545254-2.271-.336-1.14-.233-3.047-.625-3.576-.2-.1243341.1490807-.1799018.3437494-.153.536 0 2.718 1.784 6 4 6 1.289 0 2.033-1.3 3.1-3.447.1596977-.3197527.4778505-.5300187.8346134-.5515927.3567628-.0215741.6979349.1488213.895.447.1970651.2981786.2200843.67884.0603866.9985927-1.063 2.134-2.272 4.553-4.89 4.553z" fill="#e57e25"/><path id="Shape" d="m32.5 55c-2.779 0-4.5-2.761-4.5-5.32-.0177784-.592277.2227174-1.1630441.659-1.564.967-.879 2.658-.717 4.022-.587.375.036.717.071.986.071.624743.004571 1.2407287-.1470192 1.792-.441.3004991-.195935.682928-.2158963 1.0021927-.0523105.3192646.1635857.5264442.4856524.5429346.8440074.0164903.358355-.1602354.6980877-.4631273.8903031-.8721345.5072808-1.8651185.7695198-2.874.759-.32 0-.73-.037-1.177-.08-.6-.058-2.206-.212-2.487.077 0 1.686 1 3.4 2.5 3.4.6017298-.0385496 1.1667278-.3028344 1.582-.74.3659942-.401991.9860915-.437951 1.3960997-.0809611s.4597103.9761373.1119003 1.3939611c-.7919399.8797502-1.9097792 1.3965657-3.093 1.43z" fill="#e57e25"/></g></g></svg>